<svg viewBox="0 0 100 100" width="100px" height="100px" xmlns="http://www.w3.org/2000/svg" stroke="#000" stroke-width="4">
  <path d="M49.3333333,87.3333333 L49.0222222,87.1743375 C32.2222222,80.8145049 21.3333333,65.8688982 21.3333333,49.1743375 L21.3333333,18.3291492 L21.6444444,18.1701534 C27.7111111,13.4002789 36.5777778,11.3333333 49.3333333,11.3333333 C49.9113087,11.4877478 50.3557531,11.4877478 50.6666667,11.3333333 C63.4222222,11.3333333 72.2888889,13.4002789 78.3555556,18.1701534 L78.6666667,18.3291492 L78.6666667,49.1743375 C78.6666667,65.8688982 67.7777778,80.8145049 50.9777778,87.1743375 L50.6666667,87.3333333 C50.3618183,87.1959591 49.9173739,87.1959591 49.3333333,87.3333333 Z" fill="silver"/>
  <path d="M49.3333333,87.3333333 L49.0222222,87.1743375 C32.2222222,80.8145049 21.3333333,65.8688982 21.3333333,49.1743375 L21.3333333,18.3291492 L21.6444444,18.1701534 C27.7111111,13.4002789 36.5777778,11.3333333 49.3333333,11.3333333 C49.9113087,11.4877478 50.3557531,11.4877478 50.6666667,11.3333333 C63.4222222,11.3333333 72.2888889,13.4002789 78.3555556,18.1701534 L78.6666667,18.3291492 L78.6666667,49.1743375 C78.6666667,65.8688982 67.7777778,80.8145049 50.9777778,87.1743375 L50.6666667,87.3333333 C50.3618183,87.1959591 49.9173739,87.1959591 49.3333333,87.3333333 Z" fill="silver" transform="translate(-10,-10)"/>
</svg>