<svg xmlns="http://www.w3.org/2000/svg" x="0px" y="0px" viewBox="0 0 32 32" width="32px" height="32px" fill="#FFF">
	<path d="M29.5,9.1l-13-7c-0.3-0.2-0.7-0.2-0.9,0l-13,7C2.2,9.3,2,9.6,2,10v3c0,0.6,0.4,1,1,1h26c0.6,0,1-0.4,1-1v-3 C30,9.6,29.8,9.3,29.5,9.1z"/>
	<path d="M17,24c0.6,0,1-0.4,1-1v-7c0-0.6-0.4-1-1-1h-2c-0.6,0-1,0.4-1,1v7c0,0.6,0.4,1,1,1H17z"/>
	<path d="M25,24c0.6,0,1-0.4,1-1v-7c0-0.6-0.4-1-1-1h-2c-0.6,0-1,0.4-1,1v7c0,0.6,0.4,1,1,1H25z"/>
	<path d="M9,24c0.6,0,1-0.4,1-1v-7c0-0.6-0.4-1-1-1H7c-0.6,0-1,0.4-1,1v7c0,0.6,0.4,1,1,1H9z"/>
	<path d="M29,25H3c-0.6,0-1,0.4-1,1v3c0,0.6,0.4,1,1,1h26c0.6,0,1-0.4,1-1v-3C30,25.4,29.6,25,29,25z"/>
</svg>
