<svg xmlns="http://www.w3.org/2000/svg" x="0px" y="0px" viewBox="0 0 32 32" width="32px" height="32px" fill="none" stroke="#000" stroke-width="2" stroke-linejoin="round" stroke-linecap="round">
  <path d="M26,27H6c-1.1,0-2-0.9-2-2V13c0-1.1,0.9-2,2-2h20c1.1,0,2,0.9,2,2v12C28,26.1,27.1,27,26,27z"/>
  <circle cx="20" cy="19" r="4"/>
  <line x1="8" y1="15" x2="13" y2="15"/>
  <line x1="8" y1="19" x2="11" y2="19"/>
  <line x1="8" y1="23" x2="13" y2="23"/>
  <line x1="27" y1="3" x2="6" y2="11"/>
  <line x1="7" y1="29" x2="7" y2="27"/>
  <line x1="25" y1="29" x2="25" y2="27"/>
</svg>
