<svg xmlns="http://www.w3.org/2000/svg" xmlns:xlink="http://www.w3.org/1999/xlink" x="0px" y="0px" viewBox="0 0 32 32" width="32px" height="32px" fill="none" stroke="#FFF" stroke-width="2" stroke-linejoin="round" stroke-linecap="round">
<path d="M21.5,20.5c-2.1,2.1-2.1,5.4,0,7.5l7.5-7.5C26.9,18.5,23.6,18.5,21.5,20.5z"/>
<line x1="28" y1="27" x2="25.3" y2="24.3"/>
<rect x="10.2" y="3.5" transform="matrix(0.7071 -0.7071 0.7071 0.7071 -4.6777 12.7071)" width="5.7" height="17"/>
<line x1="17.5" y1="12.5" x2="20" y2="10"/>
<line x1="11" y1="19" x2="13.5" y2="16.5"/>
<rect x="4.5" y="17.1" transform="matrix(0.7071 -0.7071 0.7071 0.7071 -13.2132 12.1005)" width="7.1" height="9.9"/>
<rect x="19.5" y="2.1" transform="matrix(0.7071 -0.7071 0.7071 0.7071 1.7868 18.3137)" width="7.1" height="9.9"/>
<line x1="5" y1="19" x2="11" y2="25"/>
<line x1="20" y1="4" x2="26" y2="10"/>
</svg>
