<svg xmlns="http://www.w3.org/2000/svg" x="0px" y="0px" viewBox="0 0 32 32" width="32px" height="32px" fill="none" stroke="#FFF" stroke-width="2" stroke-linejoin="round" stroke-linecap="round">
  <circle cx="16" cy="16" r="4"/>
  <path d="M12.5,9.9c0.3-1.4,1-2.7,2.1-3.8C16.7,4,19.6,3.3,22.3,4"/>
  <path d="M9.2,14.2C8.4,13,8,11.5,8,10c0-3,1.6-5.5,4-6.9"/>
  <path d="M9.9,19.5c-1.4-0.3-2.7-1-3.8-2.1C4,15.3,3.3,12.4,4,9.7"/>
  <path d="M14.2,22.8C13,23.6,11.5,24,10,24c-3,0-5.5-1.6-6.9-4"/>
  <path d="M19.5,22.1c-0.3,1.4-1,2.7-2.1,3.8c-2.1,2.1-5.1,2.8-7.7,2.1"/>
  <path d="M22.8,17.8C23.6,19,24,20.5,24,22c0,3-1.6,5.5-4,6.9"/>
  <path d="M22.1,12.5c1.4,0.3,2.7,1,3.8,2.1c2.1,2.1,2.8,5.1,2.1,7.7"/>
  <path d="M17.8,9.2C19,8.4,20.5,8,22,8c3,0,5.5,1.6,6.9,4"/>
</svg>
